<svg xmlns="http://www.w3.org/2000/svg" width="100" height="100" viewBox="0 0 100 100">
  <g fill="none" fill-rule="evenodd">
    <path fill="#1cc88a" d="M50,0 C77.6142375,0 100,22.3857625 100,50 C100,77.6142375 77.6142375,100 50,100 C22.3857625,100 0,77.6142375 0,50 C0,22.3857625 22.3857625,0 50,0 Z M50,7 C26.2517328,7 7,26.2517328 7,50 C7,73.7482672 26.2517328,93 50,93 C73.7482672,93 93,73.7482672 93,50 C93,26.2517328 73.7482672,7 50,7 Z"/>
    <path fill="#36b9cc" d="M75,42 L58,42 L58,25 C58,24.4477153 57.5522847,24 57,24 L43,24 C42.4477153,24 42,24.4477153 42,25 L42,42 L25,42 C24.4477153,42 24,42.4477153 24,43 L24,57 C24,57.5522847 24.4477153,58 25,58 L42,58 L42,75 C42,75.5522847 42.4477153,76 43,76 L57,76 C57.5522847,76 58,75.5522847 58,75 L58,58 L75,58 C75.5522847,58 76,57.5522847 76,57 L76,43 C76,42.4477153 75.5522847,42 75,42 Z"/>
  </g>
</svg>
