<svg xmlns="http://www.w3.org/2000/svg" width="120" height="120" viewBox="0 0 120 120">
  <g fill="none" fill-rule="evenodd">
    <path fill="#36b9cc" d="M60,0 C93.1371,0 120,26.8629 120,60 C120,93.1371 93.1371,120 60,120 C26.8629,120 0,93.1371 0,60 C0,26.8629 26.8629,0 60,0 Z M60,10 C32.3858,10 10,32.3858 10,60 C10,87.6142 32.3858,110 60,110 C87.6142,110 110,87.6142 110,60 C110,32.3858 87.6142,10 60,10 Z"/>
    <path fill="#1cc88a" d="M60,30 C65.5228,30 70,34.4772 70,40 C70,45.5228 65.5228,50 60,50 C54.4772,50 50,45.5228 50,40 C50,34.4772 54.4772,30 60,30 Z"/>
    <rect width="50" height="8" x="35" y="70" fill="#1cc88a" rx="4"/>
    <rect width="40" height="8" x="40" y="85" fill="#36b9cc" rx="4"/>
  </g>
</svg>
